<svg xmlns:xlink="http://www.w3.org/1999/xlink" xmlns="http://www.w3.org/2000/svg" width="110" height="32" viewBox="0 0 110 32"><g fill="none" fill-rule="evenodd"><path d="M0 0h110v32H0z" fill="none"></path><path fill="#0F6CB2" d="m77.15 13.46 6.17 5.308-8.967-5.119-2.972-3.307 5.31 1.117L85 14.623z"></path><path fill="#1E88E5" d="m70.833 6.602 3.52 7.047-9.662-.858 1.237-2.895-1.234-2.56 2.126-2.984z"></path><path fill="#0F6CB2" d="M70.833 6.602 81.321 0 66.82 4.352z"></path><path fill="#1E88E5" d="m61.488 10.518 1.262-.776 3.178.154 8.425 3.753-9.314-1.672-3.633-.65-1.494-.503z"></path><path d="M61.406 11.326c1.652 2.718 5.345 2.43 12.947 2.323l-12.947-2.323z" fill="#F57C00"></path><path d="M58.877 28.743h-2.153v-.515c-.838.602-1.803.91-2.89.91a5.364 5.364 0 0 1-2.085-.395 4.555 4.555 0 0 1-1.59-1.07 4.78 4.78 0 0 1-1.018-1.598 5.28 5.28 0 0 1-.362-1.966 4.93 4.93 0 0 1 1.481-3.558 5.17 5.17 0 0 1 1.603-1.07 4.855 4.855 0 0 1 1.971-.4 5.031 5.031 0 0 1 3.567 1.471c.45.448.812.976 1.08 1.591.262.609.396 1.264.396 1.966v4.634zm-7.953-4.634c0 .395.08.77.234 1.116a2.909 2.909 0 0 0 1.542 1.532c.356.154.732.234 1.127.234.396 0 .772-.073 1.127-.214a2.74 2.74 0 0 0 .918-.601 2.853 2.853 0 0 0 .852-2.067c0-.395-.074-.77-.228-1.116a2.92 2.92 0 0 0-.624-.917 3.003 3.003 0 0 0-.918-.622 2.806 2.806 0 0 0-1.127-.227c-.395 0-.77.073-1.126.227a2.93 2.93 0 0 0-.919.622c-.261.261-.47.562-.624.917a2.734 2.734 0 0 0-.234 1.116zM33.134 24.11c0-.703.134-1.358.403-1.967a4.878 4.878 0 0 1 1.079-1.592c.456-.448.993-.809 1.603-1.07a4.91 4.91 0 0 1 1.978-.4c.704 0 1.36.133 1.971.4.61.261 1.14.622 1.596 1.07.45.449.805.977 1.073 1.592a4.93 4.93 0 0 1 .396 1.966 4.93 4.93 0 0 1-.396 1.966 5.175 5.175 0 0 1-1.073 1.592 5.269 5.269 0 0 1-1.596 1.07 4.855 4.855 0 0 1-1.971.4 4.912 4.912 0 0 1-1.978-.4 5.3 5.3 0 0 1-1.603-1.07 4.951 4.951 0 0 1-1.08-1.592 4.813 4.813 0 0 1-.402-1.966zm2.153 0c0 .394.073.768.228 1.116.16.348.368.655.623.916.262.26.57.462.926.615a2.808 2.808 0 0 0 2.246 0 2.912 2.912 0 0 0 1.542-1.531c.154-.348.235-.722.235-1.117s-.08-.77-.235-1.116a2.922 2.922 0 0 0-.623-.917 2.93 2.93 0 0 0-.919-.622 2.802 2.802 0 0 0-1.126-.227c-.396 0-.771.073-1.12.227a2.958 2.958 0 0 0-.926.622c-.255.261-.462.562-.623.917a2.729 2.729 0 0 0-.228 1.116zM66.038 24.11c0-.703.134-1.358.403-1.967a4.795 4.795 0 0 1 1.086-1.592c.456-.448.985-.809 1.603-1.07a4.854 4.854 0 0 1 1.971-.4c.704 0 1.361.133 1.972.4a5.07 5.07 0 0 1 1.596 1.07c.449.449.804.977 1.073 1.592a4.82 4.82 0 0 1 .395 1.966 4.82 4.82 0 0 1-.395 1.966 5.173 5.173 0 0 1-1.073 1.592 5.19 5.19 0 0 1-1.596 1.07 4.859 4.859 0 0 1-1.972.4 4.856 4.856 0 0 1-1.971-.4 5.212 5.212 0 0 1-1.603-1.07 4.866 4.866 0 0 1-1.086-1.592 4.816 4.816 0 0 1-.403-1.966zm2.153 0c0 .394.08.768.234 1.116.155.348.363.655.624.916.255.26.564.462.919.615.348.154.724.234 1.12.234.402 0 .77-.08 1.126-.234.356-.153.664-.354.919-.615.261-.26.47-.568.624-.916.154-.348.234-.722.234-1.117s-.08-.77-.234-1.116a2.917 2.917 0 0 0-.624-.917 2.856 2.856 0 0 0-2.046-.85c-.395 0-.77.074-1.12.228a2.857 2.857 0 0 0-.918.622c-.261.261-.469.562-.624.917a2.73 2.73 0 0 0-.234 1.116zM45.144 31.044v-.007c-.067.047-.141.094-.208.14a6.493 6.493 0 0 1-1.307.576 6.88 6.88 0 0 1-1.872.247v-2.147c.47 0 .906-.073 1.315-.227a3.63 3.63 0 0 0 1.073-.629c.308-.267.556-.575.73-.922.182-.355.269-.73.269-1.124v-7.436h2.152v6.212c0 2.482-.563 4.254-2.152 5.317zM62.524 20.277v.007c.074-.047.141-.094.215-.14a6.02 6.02 0 0 1 1.308-.569c.563-.167.985-.254 1.67-.254v2.147c-.47 0-.711.073-1.114.227-.409.16-.77.368-1.08.629-.308.267-.549.575-.73.923a2.432 2.432 0 0 0-.269 1.123v4.768H60.38v-3.544c0-2.475.556-4.247 2.145-5.317zM45.137 18.298h2.16v-2.154h-2.16zM27.153 29.091H25V16.52h2.153z" fill="#383E43"></path><path fill="#1E88E5" d="m28.038 23.153 4.814-4.802h-3.037l-3.292 3.284L25 23.153l5.995 5.985h3.038z"></path></g></svg>