<svg xmlns:xlink="http://www.w3.org/1999/xlink" xmlns="http://www.w3.org/2000/svg" viewBox="0 0 110 32" width="110" height="32"><path fill="#383E43" d="M57.544 7.072C58.553 6.045 59.56 5.017 60.578 4c.536.512 1.044 1.053 1.568 1.578.16.169.336.32.482.501a.688.688 0 0 1-.155.186c-5.43 5.506-10.856 11.014-16.284 16.521-.923.95-1.878 1.88-2.964 2.638-1.155.819-2.462 1.429-3.842 1.728-1.663.352-3.406.32-5.053-.103-2.409-.61-4.59-2.083-6.085-4.092a11.27 11.27 0 0 1-1.879-3.905 11.254 11.254 0 0 1-.08-5.367 11.94 11.94 0 0 1 3.019-5.536c1.505-1.569 3.458-2.715 5.582-3.148a9.977 9.977 0 0 1 4.9.25c1.99.597 3.803 1.731 5.302 3.177a948.973 948.973 0 0 1 4.353 4.413c-.119.156-.266.285-.4.425l-1.264 1.283c-.131.13-.253.27-.396.386-1.143-1.145-2.273-2.304-3.41-3.456-.427-.423-.835-.866-1.28-1.269-.956-.863-2.082-1.542-3.307-1.926-1.395-.437-2.908-.512-4.33-.157a7.914 7.914 0 0 0-3.615 2.063 8.537 8.537 0 0 0-2.212 3.782 8.435 8.435 0 0 0 .236 5.169 8.062 8.062 0 0 0 3.836 4.33c1.344.701 2.884.98 4.388.873a7.45 7.45 0 0 0 2.325-.528c1.077-.437 2.026-1.142 2.883-1.925.56-.512 1.084-1.063 1.619-1.603 4.344-4.404 8.683-8.814 13.029-13.216zM58.967 12.446c1.66-1.678 3.308-3.368 4.975-5.04.691.691 1.379 1.386 2.058 2.09-5.663 5.76-11.34 11.504-17.006 17.26-.41.415-.815.834-1.23 1.244l-1.726-1.753c-.113-.112-.228-.223-.327-.348 4.414-4.49 8.836-8.97 13.256-13.453zM61.163 22.64c.084-.082.156-.178.255-.242.549.55 1.097 1.1 1.636 1.661-.36.389-.737.76-1.109 1.136-.18.173-.341.367-.532.528a62.335 62.335 0 0 1-1.643-1.664c.456-.481.931-.943 1.393-1.42zM58.774 25.065c.144-.143.279-.296.433-.428.546.556 1.1 1.103 1.637 1.669-.539.56-1.086 1.112-1.637 1.66-.562-.539-1.1-1.104-1.646-1.66.394-.424.808-.828 1.213-1.241zM63.65 24.665c.353.341.692.697 1.038 1.047.192.21.42.39.59.623-.22.255-.47.482-.699.728-.305.314-.611.626-.928.928-.342-.301-.66-.629-.983-.95-.225-.237-.464-.462-.664-.722.548-.552 1.082-1.119 1.645-1.654z"></path><path d="M80.949 5.005c1.012-.008 2.025-.004 3.038-.002.025 1.003.005 2.007.01 3.011v8.322c-.008.397.025.797-.04 1.192-.043.305-.007.615-.06.919-.068.452-.116.908-.23 1.353-.192.837-.441 1.667-.818 2.444-.542 1.159-1.302 2.23-2.28 3.079-1.224 1.087-2.789 1.778-4.413 2.059-.21.056-.432.032-.644.082-.253.062-.517.048-.775.049-.536.014-1.07 0-1.606-.004-.225 0-.437-.09-.663-.082-.21.005-.408-.07-.614-.096-.748-.111-1.474-.335-2.178-.6-1.31-.508-2.51-1.27-3.564-2.18-.552-.465-1.05-.986-1.57-1.485-.63-.616-1.259-1.235-1.894-1.848a2.271 2.271 0 0 0-.285-.256c-2.412 2.34-4.81 4.693-7.215 7.038-.529-.497-1.038-1.013-1.56-1.516-.198-.193-.402-.38-.588-.583.695-.682 1.402-1.353 2.092-2.039.288-.243.523-.537.81-.78.258-.245.494-.512.764-.743.355-.376.748-.716 1.104-1.092.278-.237.516-.513.784-.76.257-.219.468-.482.723-.703.24-.209.44-.455.68-.664.254-.221.466-.485.724-.703.228-.204.423-.441.654-.642.241-.208.441-.457.681-.665.247-.215.454-.469.7-.683.232-.202.426-.44.657-.643.249-.213.456-.467.701-.683.241-.208.442-.455.68-.665.22-.189.406-.41.618-.606.32-.278.592-.603.913-.879.32-.344.681-.648 1.002-.992.174-.178.372-.333.54-.518.187-.205.405-.38.59-.587.035-.058.12-.079.171-.026.627.612 1.244 1.232 1.882 1.833.057.057.111.119.166.18-.175.258-.432.447-.646.672-1.762 1.713-3.514 3.435-5.277 5.147-.064.063-.138.12-.171.206.746.752 1.516 1.482 2.269 2.228.443.427.864.878 1.351 1.259a10.461 10.461 0 0 0 3.701 1.898c.427.126.871.18 1.304.28.335-.014.659.087.993.075.221-.005.445.014.664-.033.232-.052.475-.014.703-.09a6.365 6.365 0 0 0 2.076-.765c1.084-.644 1.921-1.637 2.456-2.752.166-.393.349-.781.46-1.193.107-.418.228-.834.284-1.262.073-.293.048-.598.108-.893.055-.397.016-.8.03-1.198 0-3.805.01-7.61.008-11.415z" fill="#FFAA01"></path></svg>