<svg xmlns:xlink="http://www.w3.org/1999/xlink" width="106" height="20" xmlns="http://www.w3.org/2000/svg" viewBox="0 0 170 25.16" style="--z-text:var(--text);--z-logo:var(--primary-1)"><style>
		.z-text {
		fill: var(--z-text);
		}
		
		.z-logo {
		fill: var(--z-logo);
		}
	</style><g id="Layer_2" data-name="Layer 2"><g id="Layer_1-2" data-name="Layer 1"><path class="z-logo" d="M13.49,0H43.17a0,0,0,0,1,0,0L28.94,16H21.62a0,0,0,0,1,0,0L30.9,5.56a0,0,0,0,0,0,0H8.58L13.47,0h0" fill="#E4002B"></path><polygon class="z-logo" points="29.71 25.16 0 25.16 14.25 9.16 21.6 9.16 12.27 19.62 34.62 19.62 29.71 25.16" fill="#E4002B"></polygon><polygon class="z-text" points="62.27 6.16 49.64 6.16 52.78 2.66 70.47 2.66 56.3 19 69.47 19 67.19 22.5 48.1 22.5 62.27 6.16" fill="#383E43"></polygon><path class="z-text" d="M77.7,22.5a5.84,5.84,0,0,1-5.83-5.83V8.49a5.62,5.62,0,0,1,1.71-4.12A5.62,5.62,0,0,1,77.7,2.66h8.17A5.62,5.62,0,0,1,90,4.37,5.62,5.62,0,0,1,91.7,8.49v8.17a5.84,5.84,0,0,1-5.83,5.83Zm-2.33-5.83A2.33,2.33,0,0,0,77.7,19h8.17a2.33,2.33,0,0,0,2.33-2.33V8.49a2.33,2.33,0,0,0-2.33-2.33H77.7a2.33,2.33,0,0,0-2.33,2.33Z" fill="#383E43"></path><path class="z-text" d="M101.17,22.5a5.84,5.84,0,0,1-5.83-5.83V8.49A5.62,5.62,0,0,1,97,4.37a5.62,5.62,0,0,1,4.12-1.71h8.17a5.62,5.62,0,0,1,4.12,1.71,5.62,5.62,0,0,1,1.71,4.12v8.17a5.84,5.84,0,0,1-5.83,5.83Zm-2.33-5.83A2.33,2.33,0,0,0,101.17,19h8.17a2.33,2.33,0,0,0,2.33-2.33V8.49a2.33,2.33,0,0,0-2.33-2.33h-8.17a2.33,2.33,0,0,0-2.33,2.33Z" fill="#383E43"></path><rect class="z-text" x="143.52" y="2.66" width="3.5" height="19.83" fill="#383E43"></rect><polygon class="z-text" points="161.83 6.16 161.83 22.5 158.33 22.5 158.33 6.16 150.16 6.16 150.16 2.66 170 2.66 170 6.16 161.83 6.16" fill="#383E43"></polygon><polygon class="z-text" points="136.21 2.66 129.32 9.35 122.44 2.66 118.82 2.66 118.82 22.5 122.32 22.5 122.32 7.19 129.32 13.83 136.32 7.19 136.32 22.5 139.82 22.5 139.82 2.66 136.21 2.66" fill="#383E43"></polygon></g></g></svg>