<svg xmlns:xlink="http://www.w3.org/1999/xlink" width="110" height="32" viewBox="0 0 110 32" xmlns="http://www.w3.org/2000/svg"><defs><path id="648eq42fya" d="M0 0h23.624v18H0z"></path></defs><g fill="none" fill-rule="evenodd"><path d="M0 0h110v32H0z" fill="none"></path><g transform="translate(0 7)" fill="none"><g mask="url(#qvf4tqw8bb)" fill="none"><path fill="#636464" d="M2.645 0h8.34l2.086 3.235L6.393 13.64 9.175 18H5.143l-2.782-4.36 5.967-9.422H0z"></path><path fill="#EE2D58" d="m15.148.288 2.64 4.353-5.87 9.282h6.287l-1.946-3.094h5.419l1.946 3.094L20.845 18H9.312l-2.777-4.36z"></path></g></g><path fill="#383E43" d="M38.53 11.408h-8.933l2.222-2.504H44.33L34.305 20.592h9.315l-1.617 2.504H28.509zM49.442 23.102c-2.278-.001-4.124-1.87-4.126-4.175V13.08a4.05 4.05 0 0 1 1.208-2.95 3.955 3.955 0 0 1 2.918-1.225h5.774a3.955 3.955 0 0 1 2.915 1.224 4.032 4.032 0 0 1 1.208 2.95v5.843c.002 2.307-1.844 4.178-4.123 4.181h-5.774zm-1.65-4.175c0 .442.174.866.484 1.179.31.312.729.487 1.166.486h5.774c.438 0 .858-.175 1.168-.488.31-.314.484-.74.483-1.183V13.08c0-.444-.173-.87-.483-1.183-.31-.313-.73-.489-1.168-.488h-5.774c-.438 0-.858.175-1.168.488-.31.314-.484.74-.483 1.183v5.848zM66.03 23.102c-2.276-.003-4.12-1.87-4.122-4.175V13.08a4.032 4.032 0 0 1 1.207-2.95 3.955 3.955 0 0 1 2.916-1.225h5.774a3.955 3.955 0 0 1 2.926 1.224 4.05 4.05 0 0 1 1.208 2.95v5.843c0 1.11-.435 2.174-1.21 2.959a4.104 4.104 0 0 1-2.924 1.222H66.03zm-1.65-4.175c-.001.443.173.869.482 1.182.31.314.73.49 1.169.489h5.774c.438 0 .858-.175 1.168-.489.31-.313.483-.739.483-1.182V13.08c0-.444-.173-.87-.483-1.183-.31-.313-.73-.489-1.168-.488H66.03c-.438 0-.859.175-1.169.488-.31.314-.483.74-.482 1.183v5.848zM90.806 8.904l-4.868 4.784-4.867-4.784h-2.558v14.195h2.475V12.144l4.95 4.75 4.95-4.75V23.1h2.475V8.904zM107.52 18.927c0 .444-.172.87-.482 1.184-.31.314-.731.49-1.17.49h-5.788c-.439.001-.86-.175-1.17-.489a1.678 1.678 0 0 1-.483-1.185v-5.854c-.002-.444.172-.871.482-1.185.31-.314.732-.49 1.171-.489h8.266V8.89h-8.266a3.955 3.955 0 0 0-2.92 1.225 4.05 4.05 0 0 0-1.214 2.959v5.854c.006 2.307 1.855 4.174 4.134 4.175h5.788c1.097 0 2.148-.44 2.923-1.225A4.206 4.206 0 0 0 110 18.919v-1.662h-2.48v1.67z"></path><path fill="#EE2D58" d="M102.561 14.746H110v2.51h-7.439z" fill-rule="nonzero"></path></g></svg>