<svg xmlns:xlink="http://www.w3.org/1999/xlink" xmlns="http://www.w3.org/2000/svg" viewBox="0 0 16 16" width="24" height="24" fill="#9696a0"><path d="M14.412 12.022l-.414 1.832c-.16.712-.597 1.33-1.214 1.72-.555.351-1.215.49-1.86.397l-.215-.04-1.817-.41c2.326-.274 4.328-1.605 5.52-3.499zM8 1.262c3.72 0 6.737 3.017 6.737 6.738 0 3.72-3.016 6.737-6.737 6.737S1.263 11.72 1.263 8 4.279 1.263 8 1.263zM.478 8.893c.263 2.23 1.497 4.16 3.266 5.367l.233.153-1.832-.414c-.712-.16-1.33-.597-1.72-1.214-.35-.555-.49-1.215-.397-1.86l.04-.215.41-1.817zm9.206.371c-.93 0-1.684.754-1.684 1.684 0 .93.754 1.685 1.684 1.685.93 0 1.684-.755 1.684-1.685s-.754-1.684-1.684-1.684zM5.052 8c-.93 0-1.684.754-1.684 1.684 0 .93.754 1.684 1.684 1.684.93 0 1.685-.754 1.685-1.684C6.737 8.754 5.982 8 5.052 8zm3.374-.746c-.263-.154-.59-.154-.853 0-.263.155-.422.44-.415.746.01.457.384.823.842.823.458 0 .831-.366.841-.824.007-.305-.152-.59-.415-.745zm2.521-2.623c-.93 0-1.684.754-1.684 1.684 0 .93.754 1.685 1.684 1.685.93 0 1.685-.754 1.685-1.685 0-.93-.755-1.684-1.685-1.684zm1.075-3.044l1.832.414c1.427.322 2.343 1.7 2.11 3.125l-.032.164-.41 1.817c-.275-2.325-1.606-4.327-3.5-5.52zM6.315 3.368c-.93 0-1.684.754-1.684 1.684 0 .93.754 1.685 1.684 1.685.93 0 1.685-.755 1.685-1.685s-.754-1.684-1.685-1.684zM5.076.028l.215.04 1.817.41C4.878.74 2.948 1.975 1.74 3.744l-.153.233.414-1.832c.16-.712.598-1.33 1.215-1.72.555-.35 1.215-.49 1.86-.397z" fill="#9696A0"></path></svg>