<svg xmlns:xlink="http://www.w3.org/1999/xlink" xmlns="http://www.w3.org/2000/svg" width="24" height="24" viewBox="0 0 16 16" fill="#9696a0"><g id="surface1" fill="#9696A0"><path d="M 15 0 C 15.550781 0 16 0.449219 16 1 L 16 15 C 16 15.550781 15.550781 16 15 16 L 1 16 C 0.449219 16 0 15.550781 0 15 L 0 1 C 0 0.449219 0.449219 0 1 0 Z M 4.460938 4 L 1 4 L 1 4.234375 C 1.261719 4.253906 1.472656 4.300781 1.628906 4.375 C 1.78125 4.449219 1.914062 4.550781 2.019531 4.683594 C 2.089844 4.765625 2.3125 4.996094 2.480469 5.375 L 6.039062 12.75 L 6.273438 12.75 L 8.074219 9.050781 L 9.859375 12.75 L 10.09375 12.75 L 13.640625 5.46875 C 13.816406 5.046875 14.078125 4.730469 14.304688 4.523438 C 14.460938 4.382812 14.695312 4.289062 15 4.234375 L 15 4 L 12.402344 4 L 12.402344 4.234375 L 12.511719 4.253906 C 12.804688 4.296875 12.945312 4.378906 13.070312 4.488281 C 13.191406 4.601562 13.253906 4.71875 13.253906 4.839844 C 13.253906 5.027344 13.089844 5.367188 12.886719 5.855469 L 10.320312 10.808594 L 8.710938 7.742188 L 9.816406 5.46875 C 9.992188 5.046875 10.257812 4.730469 10.484375 4.523438 C 10.640625 4.382812 10.871094 4.289062 11.179688 4.234375 L 11.179688 4 L 8.582031 4 L 8.582031 4.234375 L 8.691406 4.253906 C 8.984375 4.296875 9.125 4.378906 9.246094 4.488281 C 9.371094 4.601562 9.429688 4.71875 9.429688 4.839844 C 9.429688 5.027344 9.265625 5.367188 9.066406 5.855469 L 8.398438 7.140625 L 7.691406 5.792969 C 7.496094 5.347656 7.398438 5.019531 7.398438 4.808594 C 7.398438 4.65625 7.457031 4.53125 7.574219 4.433594 C 7.695312 4.339844 7.886719 4.269531 8.285156 4.234375 L 8.285156 4 L 4.820312 4 L 4.820312 4.234375 C 5.085938 4.253906 5.296875 4.300781 5.449219 4.375 C 5.605469 4.449219 5.734375 4.550781 5.84375 4.683594 C 5.910156 4.765625 6.136719 4.996094 6.300781 5.375 L 7.753906 8.382812 L 6.496094 10.808594 L 3.867188 5.792969 C 3.671875 5.347656 3.574219 5.019531 3.574219 4.808594 C 3.574219 4.65625 3.632812 4.53125 3.753906 4.433594 C 3.871094 4.339844 4.0625 4.269531 4.460938 4.234375 Z M 4.460938 4 " fill="#9696A0"></path></g></svg>