<!DOCTYPE svg PUBLIC "-//W3C//DTD SVG 1.1//EN" "http://www.w3.org/Graphics/SVG/1.1/DTD/svg11.dtd">

<!-- Uploaded to: SVG Repo, www.svgrepo.com, Transformed by: SVG Repo Mixer Tools -->
<svg width="100%" height="100%" viewBox="0 0 58.71 58.71" xmlns="http://www.w3.org/2000/svg" fill="#0008">

<g id="SVGRepo_bgCarrier" stroke-width="1"/>

<g id="SVGRepo_tracerCarrier" stroke-linecap="round" stroke-linejoin="round" stroke="#CCCCCC" stroke-width="1"/>

<g id="SVGRepo_iconCarrier"> <path id="television_tv" data-name="television tv" d="M620.423,361.846H603.407l17.25-17.252a1.271,1.271,0,1,0-1.8-1.8l-19.046,19.049h-2.036l-9.671-9.673a1.281,1.281,0,0,0-1.8,0h0a1.273,1.273,0,0,0,0,1.8l7.872,7.874h-17.66a3.719,3.719,0,0,0-3.715,3.719v25.687a3.72,3.72,0,0,0,3.715,3.718h43.9a3.729,3.729,0,0,0,3.72-3.718V365.565A3.728,3.728,0,0,0,620.423,361.846Zm1.172,29.406a1.19,1.19,0,0,1-1.172,1.174h-43.9a1.187,1.187,0,0,1-1.172-1.174V365.565a1.191,1.191,0,0,1,1.172-1.178h43.9a1.194,1.194,0,0,1,1.172,1.178Zm-33.93,9.885h22.562v-2.543H587.665Z" transform="translate(-572.803 -342.427)" fill="#0008"/> </g>

</svg>